<svg width="80" height="80" viewBox="0 0 80 80" fill="none" xmlns="http://www.w3.org/2000/svg">
<g id="Icon">
<path id="Vector" d="M50 46.6667C58.9 46.6667 76.6667 51.1 76.6667 60V66.6667H23.3334V60C23.3334 51.1 41.1 46.6667 50 46.6667ZM50 40C46.4638 40 43.0724 38.5952 40.5719 36.0948C38.0715 33.5943 36.6667 30.2029 36.6667 26.6667C36.6667 23.1304 38.0715 19.7391 40.5719 17.2386C43.0724 14.7381 46.4638 13.3333 50 13.3333C53.5363 13.3333 56.9276 14.7381 59.4281 17.2386C61.9286 19.7391 63.3334 23.1304 63.3334 26.6667C63.3334 30.2029 61.9286 33.5943 59.4281 36.0948C56.9276 38.5952 53.5363 40 50 40ZM16.6667 31.9667L23.7334 24.8667L28.4667 29.6L21.3667 36.6667L28.4667 43.7333L23.7334 48.4667L16.6667 41.3667L9.60003 48.4667L4.8667 43.7333L11.9667 36.6667L4.8667 29.6L9.60003 24.8667L16.6667 31.9667Z" fill="#D32F2F"/>
</g>
</svg>
