<svg xmlns="http://www.w3.org/2000/svg" xmlns:xlink="http://www.w3.org/1999/xlink" width="200" zoomAndPan="magnify" viewBox="0 0 375 374.999991" height="120" preserveAspectRatio="xMidYMid meet" version="1.0"><defs><g/></defs><g fill="#ffffff" fill-opacity="1"><g transform="translate(80.843563, 197.391186)"><g><path d="M 32.609375 -21.171875 L 41.296875 -21.171875 L 41.296875 -4.515625 C 39.066406 -2.835938 36.484375 -1.546875 33.546875 -0.640625 C 30.617188 0.253906 27.664062 0.703125 24.6875 0.703125 C 20.425781 0.703125 16.59375 -0.203125 13.1875 -2.015625 C 9.789062 -3.835938 7.125 -6.359375 5.1875 -9.578125 C 3.25 -12.804688 2.28125 -16.457031 2.28125 -20.53125 C 2.28125 -24.59375 3.25 -28.238281 5.1875 -31.46875 C 7.125 -34.695312 9.8125 -37.21875 13.25 -39.03125 C 16.695312 -40.851562 20.570312 -41.765625 24.875 -41.765625 C 28.46875 -41.765625 31.726562 -41.15625 34.65625 -39.9375 C 37.59375 -38.726562 40.0625 -36.972656 42.0625 -34.671875 L 35.953125 -29.03125 C 33.023438 -32.125 29.488281 -33.671875 25.34375 -33.671875 C 22.71875 -33.671875 20.390625 -33.125 18.359375 -32.03125 C 16.328125 -30.9375 14.742188 -29.390625 13.609375 -27.390625 C 12.472656 -25.398438 11.90625 -23.113281 11.90625 -20.53125 C 11.90625 -17.988281 12.472656 -15.71875 13.609375 -13.71875 C 14.742188 -11.726562 16.316406 -10.175781 18.328125 -9.0625 C 20.335938 -7.945312 22.632812 -7.390625 25.21875 -7.390625 C 27.957031 -7.390625 30.421875 -7.976562 32.609375 -9.15625 Z M 32.609375 -21.171875 "/></g></g></g><g fill="#ffffff" fill-opacity="1"><g transform="translate(125.826785, 197.391186)"><g><path d="M 31.03125 0 L 23.109375 -11.4375 L 14.375 -11.4375 L 14.375 0 L 4.875 0 L 4.875 -41.0625 L 22.640625 -41.0625 C 26.273438 -41.0625 29.429688 -40.453125 32.109375 -39.234375 C 34.785156 -38.023438 36.847656 -36.304688 38.296875 -34.078125 C 39.742188 -31.847656 40.46875 -29.207031 40.46875 -26.15625 C 40.46875 -23.101562 39.734375 -20.472656 38.265625 -18.265625 C 36.804688 -16.054688 34.726562 -14.367188 32.03125 -13.203125 L 41.234375 0 Z M 30.859375 -26.15625 C 30.859375 -28.46875 30.113281 -30.238281 28.625 -31.46875 C 27.132812 -32.695312 24.960938 -33.3125 22.109375 -33.3125 L 14.375 -33.3125 L 14.375 -19 L 22.109375 -19 C 24.960938 -19 27.132812 -19.625 28.625 -20.875 C 30.113281 -22.132812 30.859375 -23.894531 30.859375 -26.15625 Z M 30.859375 -26.15625 "/></g></g></g><g fill="#ffffff" fill-opacity="1"><g transform="translate(168.698673, 197.391186)"><g><path d="M 31.90625 -8.796875 L 12.84375 -8.796875 L 9.203125 0 L -0.53125 0 L 17.765625 -41.0625 L 27.15625 -41.0625 L 45.515625 0 L 35.546875 0 Z M 28.921875 -16.015625 L 22.40625 -31.734375 L 15.890625 -16.015625 Z M 28.921875 -16.015625 "/></g></g></g><g fill="#ffffff" fill-opacity="1"><g transform="translate(213.388652, 197.391186)"><g><path d="M 14.375 -33.4375 L 14.375 -22.578125 L 33.375 -22.578125 L 33.375 -14.953125 L 14.375 -14.953125 L 14.375 0 L 4.875 0 L 4.875 -41.0625 L 35.890625 -41.0625 L 35.890625 -33.4375 Z M 14.375 -33.4375 "/></g></g></g><g fill="#ffffff" fill-opacity="1"><g transform="translate(250.630294, 197.391186)"><g><path d="M 13.375 -33.3125 L 0.234375 -33.3125 L 0.234375 -41.0625 L 36.015625 -41.0625 L 36.015625 -33.3125 L 22.875 -33.3125 L 22.875 0 L 13.375 0 Z M 13.375 -33.3125 "/></g></g></g><g fill="#ffffff" fill-opacity="1"><g transform="translate(286.640329, 197.391186)"><g><path d="M 7.6875 0.46875 C 6.082031 0.46875 4.734375 -0.078125 3.640625 -1.171875 C 2.546875 -2.265625 2 -3.632812 2 -5.28125 C 2 -6.957031 2.546875 -8.3125 3.640625 -9.34375 C 4.734375 -10.382812 6.082031 -10.90625 7.6875 -10.90625 C 9.289062 -10.90625 10.640625 -10.382812 11.734375 -9.34375 C 12.828125 -8.3125 13.375 -6.957031 13.375 -5.28125 C 13.375 -3.632812 12.828125 -2.265625 11.734375 -1.171875 C 10.640625 -0.078125 9.289062 0.46875 7.6875 0.46875 Z M 7.6875 0.46875 "/></g></g></g><g fill="#ffffff" fill-opacity="1"><g transform="translate(95.896829, 214.822661)"><g><path d="M 0.828125 -6.96875 L 3.984375 -6.96875 C 4.742188 -6.96875 5.414062 -6.820312 6 -6.53125 C 6.582031 -6.238281 7.03125 -5.832031 7.34375 -5.3125 C 7.664062 -4.789062 7.828125 -4.179688 7.828125 -3.484375 C 7.828125 -2.785156 7.664062 -2.171875 7.34375 -1.640625 C 7.03125 -1.117188 6.582031 -0.710938 6 -0.421875 C 5.414062 -0.140625 4.742188 0 3.984375 0 L 0.828125 0 Z M 3.90625 -1.328125 C 4.601562 -1.328125 5.160156 -1.519531 5.578125 -1.90625 C 5.992188 -2.289062 6.203125 -2.816406 6.203125 -3.484375 C 6.203125 -4.148438 5.992188 -4.675781 5.578125 -5.0625 C 5.160156 -5.445312 4.601562 -5.640625 3.90625 -5.640625 L 2.4375 -5.640625 L 2.4375 -1.328125 Z M 3.90625 -1.328125 "/></g></g></g><g fill="#ffffff" fill-opacity="1"><g transform="translate(104.114877, 214.822661)"><g><path d="M 4.203125 0.125 C 3.472656 0.125 2.816406 -0.03125 2.234375 -0.34375 C 1.660156 -0.65625 1.207031 -1.082031 0.875 -1.625 C 0.550781 -2.175781 0.390625 -2.796875 0.390625 -3.484375 C 0.390625 -4.171875 0.550781 -4.785156 0.875 -5.328125 C 1.207031 -5.878906 1.660156 -6.3125 2.234375 -6.625 C 2.816406 -6.9375 3.472656 -7.09375 4.203125 -7.09375 C 4.921875 -7.09375 5.566406 -6.9375 6.140625 -6.625 C 6.722656 -6.3125 7.179688 -5.878906 7.515625 -5.328125 C 7.847656 -4.785156 8.015625 -4.171875 8.015625 -3.484375 C 8.015625 -2.796875 7.847656 -2.175781 7.515625 -1.625 C 7.179688 -1.082031 6.722656 -0.65625 6.140625 -0.34375 C 5.566406 -0.03125 4.921875 0.125 4.203125 0.125 Z M 4.203125 -1.25 C 4.609375 -1.25 4.976562 -1.34375 5.3125 -1.53125 C 5.644531 -1.726562 5.90625 -1.992188 6.09375 -2.328125 C 6.28125 -2.671875 6.375 -3.054688 6.375 -3.484375 C 6.375 -3.910156 6.28125 -4.289062 6.09375 -4.625 C 5.90625 -4.96875 5.644531 -5.234375 5.3125 -5.421875 C 4.976562 -5.617188 4.609375 -5.71875 4.203125 -5.71875 C 3.785156 -5.71875 3.410156 -5.617188 3.078125 -5.421875 C 2.753906 -5.234375 2.492188 -4.96875 2.296875 -4.625 C 2.109375 -4.289062 2.015625 -3.910156 2.015625 -3.484375 C 2.015625 -3.054688 2.109375 -2.671875 2.296875 -2.328125 C 2.492188 -1.992188 2.753906 -1.726562 3.078125 -1.53125 C 3.410156 -1.34375 3.785156 -1.25 4.203125 -1.25 Z M 4.203125 -1.25 "/></g></g></g><g fill="#ffffff" fill-opacity="1"><g transform="translate(112.512013, 214.822661)"><g><path d="M 7.21875 -6.96875 L 7.21875 0 L 5.890625 0 L 2.421875 -4.234375 L 2.421875 0 L 0.828125 0 L 0.828125 -6.96875 L 2.15625 -6.96875 L 5.625 -2.734375 L 5.625 -6.96875 Z M 7.21875 -6.96875 "/></g></g></g><g fill="#ffffff" fill-opacity="1"><g transform="translate(120.550972, 214.822661)"><g><path d="M 1.3125 -7.46875 C 1.59375 -7.46875 1.820312 -7.378906 2 -7.203125 C 2.175781 -7.023438 2.265625 -6.796875 2.265625 -6.515625 C 2.265625 -6.378906 2.25 -6.242188 2.21875 -6.109375 C 2.1875 -5.972656 2.117188 -5.773438 2.015625 -5.515625 L 1.4375 -4.078125 L 0.453125 -4.078125 L 0.875 -5.65625 C 0.707031 -5.726562 0.578125 -5.835938 0.484375 -5.984375 C 0.390625 -6.128906 0.34375 -6.304688 0.34375 -6.515625 C 0.34375 -6.796875 0.429688 -7.023438 0.609375 -7.203125 C 0.796875 -7.378906 1.03125 -7.46875 1.3125 -7.46875 Z M 1.3125 -7.46875 "/></g></g></g><g fill="#ffffff" fill-opacity="1"><g transform="translate(123.157661, 214.822661)"><g><path d="M 2.265625 -5.65625 L 0.046875 -5.65625 L 0.046875 -6.96875 L 6.109375 -6.96875 L 6.109375 -5.65625 L 3.875 -5.65625 L 3.875 0 L 2.265625 0 Z M 2.265625 -5.65625 "/></g></g></g><g fill="#ffffff" fill-opacity="1"><g transform="translate(129.306274, 214.822661)"><g/></g></g><g fill="#ffffff" fill-opacity="1"><g transform="translate(132.121898, 214.822661)"><g><path d="M 5.9375 -3.625 C 6.34375 -3.5 6.65625 -3.285156 6.875 -2.984375 C 7.101562 -2.691406 7.21875 -2.332031 7.21875 -1.90625 C 7.21875 -1.289062 6.976562 -0.816406 6.5 -0.484375 C 6.03125 -0.160156 5.335938 0 4.421875 0 L 0.828125 0 L 0.828125 -6.96875 L 4.234375 -6.96875 C 5.078125 -6.96875 5.726562 -6.800781 6.1875 -6.46875 C 6.644531 -6.144531 6.875 -5.707031 6.875 -5.15625 C 6.875 -4.8125 6.789062 -4.507812 6.625 -4.25 C 6.457031 -3.988281 6.226562 -3.78125 5.9375 -3.625 Z M 2.421875 -5.75 L 2.421875 -4.109375 L 4.03125 -4.109375 C 4.425781 -4.109375 4.726562 -4.175781 4.9375 -4.3125 C 5.144531 -4.457031 5.25 -4.664062 5.25 -4.9375 C 5.25 -5.207031 5.144531 -5.410156 4.9375 -5.546875 C 4.726562 -5.679688 4.425781 -5.75 4.03125 -5.75 Z M 4.3125 -1.21875 C 4.738281 -1.21875 5.054688 -1.285156 5.265625 -1.421875 C 5.484375 -1.554688 5.59375 -1.769531 5.59375 -2.0625 C 5.59375 -2.644531 5.164062 -2.9375 4.3125 -2.9375 L 2.421875 -2.9375 L 2.421875 -1.21875 Z M 4.3125 -1.21875 "/></g></g></g><g fill="#ffffff" fill-opacity="1"><g transform="translate(139.733043, 214.822661)"><g><path d="M 6.21875 -1.296875 L 6.21875 0 L 0.828125 0 L 0.828125 -6.96875 L 6.09375 -6.96875 L 6.09375 -5.671875 L 2.421875 -5.671875 L 2.421875 -4.15625 L 5.65625 -4.15625 L 5.65625 -2.90625 L 2.421875 -2.90625 L 2.421875 -1.296875 Z M 6.21875 -1.296875 "/></g></g></g><g fill="#ffffff" fill-opacity="1"><g transform="translate(146.408965, 214.822661)"><g/></g></g><g fill="#ffffff" fill-opacity="1"><g transform="translate(149.224589, 214.822661)"><g><path d="M 0.828125 -6.96875 L 3.984375 -6.96875 C 4.742188 -6.96875 5.414062 -6.820312 6 -6.53125 C 6.582031 -6.238281 7.03125 -5.832031 7.34375 -5.3125 C 7.664062 -4.789062 7.828125 -4.179688 7.828125 -3.484375 C 7.828125 -2.785156 7.664062 -2.171875 7.34375 -1.640625 C 7.03125 -1.117188 6.582031 -0.710938 6 -0.421875 C 5.414062 -0.140625 4.742188 0 3.984375 0 L 0.828125 0 Z M 3.90625 -1.328125 C 4.601562 -1.328125 5.160156 -1.519531 5.578125 -1.90625 C 5.992188 -2.289062 6.203125 -2.816406 6.203125 -3.484375 C 6.203125 -4.148438 5.992188 -4.675781 5.578125 -5.0625 C 5.160156 -5.445312 4.601562 -5.640625 3.90625 -5.640625 L 2.4375 -5.640625 L 2.4375 -1.328125 Z M 3.90625 -1.328125 "/></g></g></g><g fill="#ffffff" fill-opacity="1"><g transform="translate(157.442636, 214.822661)"><g><path d="M 5.421875 -1.5 L 2.1875 -1.5 L 1.5625 0 L -0.09375 0 L 3.015625 -6.96875 L 4.609375 -6.96875 L 7.71875 0 L 6.03125 0 Z M 4.90625 -2.71875 L 3.796875 -5.390625 L 2.703125 -2.71875 Z M 4.90625 -2.71875 "/></g></g></g><g fill="#ffffff" fill-opacity="1"><g transform="translate(165.063726, 214.822661)"><g><path d="M 2.4375 -5.671875 L 2.4375 -3.828125 L 5.65625 -3.828125 L 5.65625 -2.53125 L 2.4375 -2.53125 L 2.4375 0 L 0.828125 0 L 0.828125 -6.96875 L 6.09375 -6.96875 L 6.09375 -5.671875 Z M 2.4375 -5.671875 "/></g></g></g><g fill="#ffffff" fill-opacity="1"><g transform="translate(171.421273, 214.822661)"><g><path d="M 2.265625 -5.65625 L 0.046875 -5.65625 L 0.046875 -6.96875 L 6.109375 -6.96875 L 6.109375 -5.65625 L 3.875 -5.65625 L 3.875 0 L 2.265625 0 Z M 2.265625 -5.65625 "/></g></g></g><g fill="#ffffff" fill-opacity="1"><g transform="translate(177.569885, 214.822661)"><g><path d="M 1.3125 -1.84375 C 1.59375 -1.84375 1.820312 -1.753906 2 -1.578125 C 2.175781 -1.410156 2.265625 -1.179688 2.265625 -0.890625 C 2.265625 -0.765625 2.25 -0.632812 2.21875 -0.5 C 2.1875 -0.363281 2.113281 -0.164062 2 0.09375 L 1.4375 1.53125 L 0.453125 1.53125 L 0.890625 -0.046875 C 0.722656 -0.117188 0.585938 -0.226562 0.484375 -0.375 C 0.390625 -0.519531 0.34375 -0.691406 0.34375 -0.890625 C 0.34375 -1.179688 0.429688 -1.410156 0.609375 -1.578125 C 0.796875 -1.753906 1.03125 -1.84375 1.3125 -1.84375 Z M 1.3125 -1.84375 "/></g></g></g><g fill="#ffffff" fill-opacity="1"><g transform="translate(180.176575, 214.822661)"><g/></g></g><g fill="#ffffff" fill-opacity="1"><g transform="translate(182.992199, 214.822661)"><g><path d="M 5.53125 -3.59375 L 7 -3.59375 L 7 -0.765625 C 6.625 -0.484375 6.1875 -0.265625 5.6875 -0.109375 C 5.195312 0.046875 4.695312 0.125 4.1875 0.125 C 3.46875 0.125 2.816406 -0.03125 2.234375 -0.34375 C 1.660156 -0.65625 1.207031 -1.082031 0.875 -1.625 C 0.550781 -2.175781 0.390625 -2.796875 0.390625 -3.484375 C 0.390625 -4.171875 0.550781 -4.785156 0.875 -5.328125 C 1.207031 -5.878906 1.664062 -6.3125 2.25 -6.625 C 2.832031 -6.9375 3.488281 -7.09375 4.21875 -7.09375 C 4.832031 -7.09375 5.382812 -6.988281 5.875 -6.78125 C 6.375 -6.570312 6.796875 -6.269531 7.140625 -5.875 L 6.09375 -4.921875 C 5.601562 -5.453125 5.003906 -5.71875 4.296875 -5.71875 C 3.859375 -5.71875 3.460938 -5.625 3.109375 -5.4375 C 2.765625 -5.25 2.492188 -4.984375 2.296875 -4.640625 C 2.109375 -4.304688 2.015625 -3.921875 2.015625 -3.484375 C 2.015625 -3.054688 2.109375 -2.671875 2.296875 -2.328125 C 2.492188 -1.992188 2.765625 -1.726562 3.109375 -1.53125 C 3.453125 -1.34375 3.84375 -1.25 4.28125 -1.25 C 4.738281 -1.25 5.15625 -1.347656 5.53125 -1.546875 Z M 5.53125 -3.59375 "/></g></g></g><g fill="#ffffff" fill-opacity="1"><g transform="translate(190.663036, 214.822661)"><g><path d="M 6.21875 -1.296875 L 6.21875 0 L 0.828125 0 L 0.828125 -6.96875 L 6.09375 -6.96875 L 6.09375 -5.671875 L 2.421875 -5.671875 L 2.421875 -4.15625 L 5.65625 -4.15625 L 5.65625 -2.90625 L 2.421875 -2.90625 L 2.421875 -1.296875 Z M 6.21875 -1.296875 "/></g></g></g><g fill="#ffffff" fill-opacity="1"><g transform="translate(197.338958, 214.822661)"><g><path d="M 2.265625 -5.65625 L 0.046875 -5.65625 L 0.046875 -6.96875 L 6.109375 -6.96875 L 6.109375 -5.65625 L 3.875 -5.65625 L 3.875 0 L 2.265625 0 Z M 2.265625 -5.65625 "/></g></g></g><g fill="#ffffff" fill-opacity="1"><g transform="translate(203.48757, 214.822661)"><g/></g></g><g fill="#ffffff" fill-opacity="1"><g transform="translate(206.303194, 214.822661)"><g><path d="M 4.203125 0.125 C 3.472656 0.125 2.816406 -0.03125 2.234375 -0.34375 C 1.660156 -0.65625 1.207031 -1.082031 0.875 -1.625 C 0.550781 -2.175781 0.390625 -2.796875 0.390625 -3.484375 C 0.390625 -4.171875 0.550781 -4.785156 0.875 -5.328125 C 1.207031 -5.878906 1.660156 -6.3125 2.234375 -6.625 C 2.816406 -6.9375 3.472656 -7.09375 4.203125 -7.09375 C 4.921875 -7.09375 5.566406 -6.9375 6.140625 -6.625 C 6.722656 -6.3125 7.179688 -5.878906 7.515625 -5.328125 C 7.847656 -4.785156 8.015625 -4.171875 8.015625 -3.484375 C 8.015625 -2.796875 7.847656 -2.175781 7.515625 -1.625 C 7.179688 -1.082031 6.722656 -0.65625 6.140625 -0.34375 C 5.566406 -0.03125 4.921875 0.125 4.203125 0.125 Z M 4.203125 -1.25 C 4.609375 -1.25 4.976562 -1.34375 5.3125 -1.53125 C 5.644531 -1.726562 5.90625 -1.992188 6.09375 -2.328125 C 6.28125 -2.671875 6.375 -3.054688 6.375 -3.484375 C 6.375 -3.910156 6.28125 -4.289062 6.09375 -4.625 C 5.90625 -4.96875 5.644531 -5.234375 5.3125 -5.421875 C 4.976562 -5.617188 4.609375 -5.71875 4.203125 -5.71875 C 3.785156 -5.71875 3.410156 -5.617188 3.078125 -5.421875 C 2.753906 -5.234375 2.492188 -4.96875 2.296875 -4.625 C 2.109375 -4.289062 2.015625 -3.910156 2.015625 -3.484375 C 2.015625 -3.054688 2.109375 -2.671875 2.296875 -2.328125 C 2.492188 -1.992188 2.753906 -1.726562 3.078125 -1.53125 C 3.410156 -1.34375 3.785156 -1.25 4.203125 -1.25 Z M 4.203125 -1.25 "/></g></g></g><g fill="#ffffff" fill-opacity="1"><g transform="translate(214.70033, 214.822661)"><g><path d="M 7.21875 -6.96875 L 7.21875 0 L 5.890625 0 L 2.421875 -4.234375 L 2.421875 0 L 0.828125 0 L 0.828125 -6.96875 L 2.15625 -6.96875 L 5.625 -2.734375 L 5.625 -6.96875 Z M 7.21875 -6.96875 "/></g></g></g><g fill="#ffffff" fill-opacity="1"><g transform="translate(222.739289, 214.822661)"><g/></g></g><g fill="#ffffff" fill-opacity="1"><g transform="translate(225.554913, 214.822661)"><g><path d="M 2.265625 -5.65625 L 0.046875 -5.65625 L 0.046875 -6.96875 L 6.109375 -6.96875 L 6.109375 -5.65625 L 3.875 -5.65625 L 3.875 0 L 2.265625 0 Z M 2.265625 -5.65625 "/></g></g></g><g fill="#ffffff" fill-opacity="1"><g transform="translate(231.703526, 214.822661)"><g><path d="M 7.21875 -6.96875 L 7.21875 0 L 5.609375 0 L 5.609375 -2.859375 L 2.4375 -2.859375 L 2.4375 0 L 0.828125 0 L 0.828125 -6.96875 L 2.4375 -6.96875 L 2.4375 -4.21875 L 5.609375 -4.21875 L 5.609375 -6.96875 Z M 7.21875 -6.96875 "/></g></g></g><g fill="#ffffff" fill-opacity="1"><g transform="translate(239.742485, 214.822661)"><g><path d="M 6.21875 -1.296875 L 6.21875 0 L 0.828125 0 L 0.828125 -6.96875 L 6.09375 -6.96875 L 6.09375 -5.671875 L 2.421875 -5.671875 L 2.421875 -4.15625 L 5.65625 -4.15625 L 5.65625 -2.90625 L 2.421875 -2.90625 L 2.421875 -1.296875 Z M 6.21875 -1.296875 "/></g></g></g><g fill="#ffffff" fill-opacity="1"><g transform="translate(246.418407, 214.822661)"><g/></g></g><g fill="#ffffff" fill-opacity="1"><g transform="translate(249.234031, 214.822661)"><g><path d="M 5.53125 -3.59375 L 7 -3.59375 L 7 -0.765625 C 6.625 -0.484375 6.1875 -0.265625 5.6875 -0.109375 C 5.195312 0.046875 4.695312 0.125 4.1875 0.125 C 3.46875 0.125 2.816406 -0.03125 2.234375 -0.34375 C 1.660156 -0.65625 1.207031 -1.082031 0.875 -1.625 C 0.550781 -2.175781 0.390625 -2.796875 0.390625 -3.484375 C 0.390625 -4.171875 0.550781 -4.785156 0.875 -5.328125 C 1.207031 -5.878906 1.664062 -6.3125 2.25 -6.625 C 2.832031 -6.9375 3.488281 -7.09375 4.21875 -7.09375 C 4.832031 -7.09375 5.382812 -6.988281 5.875 -6.78125 C 6.375 -6.570312 6.796875 -6.269531 7.140625 -5.875 L 6.09375 -4.921875 C 5.601562 -5.453125 5.003906 -5.71875 4.296875 -5.71875 C 3.859375 -5.71875 3.460938 -5.625 3.109375 -5.4375 C 2.765625 -5.25 2.492188 -4.984375 2.296875 -4.640625 C 2.109375 -4.304688 2.015625 -3.921875 2.015625 -3.484375 C 2.015625 -3.054688 2.109375 -2.671875 2.296875 -2.328125 C 2.492188 -1.992188 2.765625 -1.726562 3.109375 -1.53125 C 3.453125 -1.34375 3.84375 -1.25 4.28125 -1.25 C 4.738281 -1.25 5.15625 -1.347656 5.53125 -1.546875 Z M 5.53125 -3.59375 "/></g></g></g><g fill="#ffffff" fill-opacity="1"><g transform="translate(256.904868, 214.822661)"><g><path d="M 5.265625 0 L 3.921875 -1.9375 L 2.4375 -1.9375 L 2.4375 0 L 0.828125 0 L 0.828125 -6.96875 L 3.84375 -6.96875 C 4.457031 -6.96875 4.988281 -6.863281 5.4375 -6.65625 C 5.894531 -6.445312 6.25 -6.15625 6.5 -5.78125 C 6.75 -5.40625 6.875 -4.957031 6.875 -4.4375 C 6.875 -3.914062 6.75 -3.46875 6.5 -3.09375 C 6.25 -2.71875 5.894531 -2.429688 5.4375 -2.234375 L 7 0 Z M 5.234375 -4.4375 C 5.234375 -4.832031 5.109375 -5.132812 4.859375 -5.34375 C 4.609375 -5.550781 4.238281 -5.65625 3.75 -5.65625 L 2.4375 -5.65625 L 2.4375 -3.21875 L 3.75 -3.21875 C 4.238281 -3.21875 4.609375 -3.320312 4.859375 -3.53125 C 5.109375 -3.75 5.234375 -4.050781 5.234375 -4.4375 Z M 5.234375 -4.4375 "/></g></g></g><g fill="#ffffff" fill-opacity="1"><g transform="translate(264.217539, 214.822661)"><g><path d="M 5.421875 -1.5 L 2.1875 -1.5 L 1.5625 0 L -0.09375 0 L 3.015625 -6.96875 L 4.609375 -6.96875 L 7.71875 0 L 6.03125 0 Z M 4.90625 -2.71875 L 3.796875 -5.390625 L 2.703125 -2.71875 Z M 4.90625 -2.71875 "/></g></g></g><g fill="#ffffff" fill-opacity="1"><g transform="translate(271.838628, 214.822661)"><g><path d="M 2.4375 -5.671875 L 2.4375 -3.828125 L 5.65625 -3.828125 L 5.65625 -2.53125 L 2.4375 -2.53125 L 2.4375 0 L 0.828125 0 L 0.828125 -6.96875 L 6.09375 -6.96875 L 6.09375 -5.671875 Z M 2.4375 -5.671875 "/></g></g></g><g fill="#ffffff" fill-opacity="1"><g transform="translate(278.196176, 214.822661)"><g><path d="M 2.265625 -5.65625 L 0.046875 -5.65625 L 0.046875 -6.96875 L 6.109375 -6.96875 L 6.109375 -5.65625 L 3.875 -5.65625 L 3.875 0 L 2.265625 0 Z M 2.265625 -5.65625 "/></g></g></g><g fill="#ffffff" fill-opacity="1"><g transform="translate(284.344788, 214.822661)"><g><path d="M 1.296875 0.078125 C 1.023438 0.078125 0.796875 -0.015625 0.609375 -0.203125 C 0.429688 -0.390625 0.34375 -0.617188 0.34375 -0.890625 C 0.34375 -1.179688 0.429688 -1.410156 0.609375 -1.578125 C 0.796875 -1.753906 1.023438 -1.84375 1.296875 -1.84375 C 1.578125 -1.84375 1.804688 -1.753906 1.984375 -1.578125 C 2.171875 -1.410156 2.265625 -1.179688 2.265625 -0.890625 C 2.265625 -0.617188 2.171875 -0.390625 1.984375 -0.203125 C 1.804688 -0.015625 1.578125 0.078125 1.296875 0.078125 Z M 1.296875 0.078125 "/></g></g></g><g fill="#ffffff" fill-opacity="1"><g transform="translate(286.959317, 214.822661)"><g/></g></g></svg>