<svg width="80" height="80" viewBox="0 0 80 80" fill="none" xmlns="http://www.w3.org/2000/svg">
<g id="Icon">
<path id="Vector" d="M48.2003 52.9332L52.9337 48.1998L60.0003 55.2998L67.067 48.1998L71.8003 52.9332L64.7003 59.9998L71.8003 67.0665L67.067 71.7998L60.0003 64.6998L52.9337 71.7998L48.2003 67.0665L55.3003 59.9998L48.2003 52.9332ZM33.3337 6.6665H46.667C48.4351 6.6665 50.1308 7.36888 51.381 8.61913C52.6313 9.86937 53.3337 11.5651 53.3337 13.3332V19.9998H66.667C68.4351 19.9998 70.1308 20.7022 71.381 21.9525C72.6313 23.2027 73.3337 24.8984 73.3337 26.6665V45.0998C69.6729 41.8094 64.9226 39.9923 60.0003 39.9998C54.696 39.9998 49.6089 42.107 45.8582 45.8577C42.1075 49.6084 40.0003 54.6955 40.0003 59.9998C40.0003 63.6332 40.967 67.0665 42.667 69.9998H13.3337C11.5655 69.9998 9.86986 69.2975 8.61961 68.0472C7.36937 66.797 6.66699 65.1013 6.66699 63.3332V26.6665C6.66699 22.9665 9.63366 19.9998 13.3337 19.9998H26.667V13.3332C26.667 9.63317 29.6337 6.6665 33.3337 6.6665ZM46.667 19.9998V13.3332H33.3337V19.9998H46.667Z" fill="#D32F2F"/>
</g>
</svg>
