<svg width="30" height="30" viewBox="0 0 30 30" fill="none" xmlns="http://www.w3.org/2000/svg">
<g id="Icon">
<path id="Vector" d="M24.2625 9.2625L18.225 3.225C17.7625 2.7625 17.125 2.5 16.4625 2.5H7.5C6.125 2.5 5.0125 3.625 5.0125 5L5 25C5 26.375 6.1125 27.5 7.4875 27.5H22.5C23.875 27.5 25 26.375 25 25V11.0375C25 10.375 24.7375 9.7375 24.2625 9.2625ZM18.5 18.75H16.25V22.5C16.25 23.1875 15.6875 23.75 15 23.75C14.3125 23.75 13.75 23.1875 13.75 22.5V18.75H11.5125C10.95 18.75 10.675 18.075 11.075 17.6875L14.575 14.2C14.825 13.9625 15.2125 13.9625 15.4625 14.2L18.95 17.6875C19.325 18.075 19.05 18.75 18.5 18.75ZM17.5 11.25C16.8125 11.25 16.25 10.6875 16.25 10V4.375L23.125 11.25H17.5Z" fill="#38B6FF"/>
</g>
</svg>
