<svg width="80" height="81" viewBox="0 0 80 81" fill="none" xmlns="http://www.w3.org/2000/svg">
<g id="Error">
<path id="Vector" d="M40.0003 67.147C25.3003 67.147 13.3337 55.1803 13.3337 40.4803C13.3337 25.7803 25.3003 13.8136 40.0003 13.8136C54.7003 13.8136 66.667 25.7803 66.667 40.4803C66.667 55.1803 54.7003 67.147 40.0003 67.147ZM40.0003 7.14697C21.567 7.14697 6.66699 22.047 6.66699 40.4803C6.66699 58.9136 21.567 73.8136 40.0003 73.8136C58.4337 73.8136 73.3337 58.9136 73.3337 40.4803C73.3337 22.047 58.4337 7.14697 40.0003 7.14697ZM48.6337 27.147L40.0003 35.7803L31.367 27.147L26.667 31.847L35.3003 40.4803L26.667 49.1136L31.367 53.8136L40.0003 45.1803L48.6337 53.8136L53.3337 49.1136L44.7003 40.4803L53.3337 31.847L48.6337 27.147Z" fill="#D32F2F"/>
</g>
</svg>
