<svg width="80" height="81" viewBox="0 0 80 81" fill="none" xmlns="http://www.w3.org/2000/svg">
<g id="Error">
<path id="Vector" d="M40.0003 7.14697C21.667 7.14697 6.66699 22.147 6.66699 40.4803C6.66699 58.8136 21.667 73.8136 40.0003 73.8136C58.3337 73.8136 73.3337 58.8136 73.3337 40.4803C73.3337 22.147 58.3337 7.14697 40.0003 7.14697ZM40.0003 67.147C25.3003 67.147 13.3337 55.1803 13.3337 40.4803C13.3337 25.7803 25.3003 13.8136 40.0003 13.8136C54.7003 13.8136 66.667 25.7803 66.667 40.4803C66.667 55.1803 54.7003 67.147 40.0003 67.147ZM55.3003 25.747L33.3337 47.7136L24.7003 39.1136L20.0003 43.8136L33.3337 57.147L60.0003 30.4803L55.3003 25.747Z" fill="#578E44"/>
</g>
</svg>
